<?xml version="1.0" standalone="no"?>
<!DOCTYPE svg PUBLIC "-//W3C//DTD SVG 20010904//EN"
 "http://www.w3.org/TR/2001/REC-SVG-20010904/DTD/svg10.dtd">
<svg version="1.0" xmlns="http://www.w3.org/2000/svg"
 width="400.000000pt" height="400.000000pt" viewBox="0 0 400.000000 400.000000"
 preserveAspectRatio="xMidYMid meet">
<metadata>
Created by potrace 1.14, written by Peter Selinger 2001-2017
</metadata>
<g transform="translate(0.000000,400.000000) scale(0.100000,-0.100000)"
fill="#000000" stroke="none">
<path d="M0 3832 c0 -162 1 -170 22 -188 14 -12 18 -13 10 -3 -11 14 -8 15 22
5 19 -6 32 -14 30 -18 -6 -10 55 9 70 21 34 28 35 -46 2 -82 -14 -15 -20 -29
-15 -33 5 -3 25 12 44 33 19 21 35 34 35 28 0 -5 4 -3 10 5 5 8 12 11 17 7 4
-5 1 -12 -7 -17 -8 -5 -15 -13 -16 -17 -2 -18 -23 -59 -41 -78 -28 -31 -67
-121 -58 -136 3 -5 -3 -19 -14 -31 -12 -12 -18 -24 -15 -27 9 -9 44 43 39 57
-3 8 0 10 6 6 15 -9 30 17 23 41 -4 14 -3 16 4 7 7 -11 19 -2 48 34 73 90 79
97 117 136 20 21 37 41 37 44 0 3 7 12 15 21 11 10 19 12 28 5 12 -10 40 9 31
22 -2 3 1 2 7 -3 7 -6 2 -18 -15 -36 -14 -15 -26 -32 -26 -38 0 -5 -24 -40
-54 -76 -173 -212 -357 -503 -356 -563 1 -22 1 -22 15 -4 21 27 20 -1 0 -40
-14 -27 -22 -164 -10 -164 12 0 132 64 175 93 131 89 294 237 403 367 110 130
111 132 125 146 6 7 12 17 12 23 0 5 12 23 26 38 14 15 32 40 40 56 8 15 19
27 24 27 5 0 12 10 16 22 6 19 7 19 16 5 12 -22 37 -22 45 1 9 23 56 96 66
100 4 2 7 8 7 14 0 6 17 38 37 72 21 33 46 78 57 99 10 21 20 36 23 33 2 -2
-19 -48 -46 -103 -28 -54 -51 -102 -51 -107 0 -4 -9 -19 -20 -33 -11 -14 -20
-34 -20 -43 0 -10 -7 -23 -15 -30 -8 -7 -15 -17 -15 -22 0 -6 15 3 34 19 18
15 31 31 29 36 -2 4 1 7 7 7 15 0 8 -32 -20 -92 -34 -71 -51 -98 -61 -98 -5 0
-9 -6 -9 -12 0 -7 -16 -31 -35 -52 -19 -22 -35 -42 -35 -46 0 -11 -215 -223
-268 -263 -162 -125 -247 -182 -336 -228 -120 -62 -117 -74 17 -74 85 0 97 3
161 35 65 33 169 124 262 230 50 56 175 223 190 252 8 16 20 28 26 28 6 0 4
-8 -6 -19 -11 -12 -14 -21 -7 -26 6 -3 12 -4 12 -1 1 3 2 9 3 14 1 4 5 13 10
21 5 8 4 16 -4 21 -9 6 -4 13 19 24 17 9 31 12 31 6 0 -5 -7 -10 -15 -10 -9 0
-12 -6 -8 -16 5 -14 9 -13 25 7 20 25 157 296 162 320 7 34 23 62 30 51 3 -6
2 -13 -4 -17 -22 -13 -8 -26 28 -25 74 1 115 -5 120 -17 2 -7 -2 -13 -10 -13
-10 0 -9 -3 2 -10 9 -6 11 -10 3 -10 -7 0 -10 -7 -7 -15 4 -8 1 -15 -5 -15 -6
0 -11 -9 -11 -20 0 -11 -5 -20 -11 -20 -5 0 -8 -4 -4 -9 3 -5 0 -15 -7 -23 -7
-7 -14 -20 -16 -28 -7 -33 -106 -200 -168 -282 -66 -89 -258 -274 -369 -356
-74 -54 -152 -94 -227 -116 -105 -30 -243 -15 -305 34 -30 23 -41 24 -94 8
l-39 -11 0 -98 c0 -64 4 -100 12 -105 8 -5 9 -2 4 11 -5 15 -4 16 9 5 12 -10
13 -15 3 -21 -6 -4 -16 -5 -20 -3 -4 3 -8 -6 -8 -20 0 -19 4 -24 19 -21 15 3
19 -1 16 -16 -2 -11 0 -17 5 -14 5 3 12 0 15 -6 4 -5 13 -8 21 -5 8 3 11 0 8
-8 -3 -8 0 -17 7 -22 8 -5 10 -3 4 6 -5 9 -4 11 4 6 6 -4 9 -12 6 -17 -4 -5 1
-9 9 -9 8 0 18 -5 22 -12 5 -7 3 -8 -6 -3 -9 6 -11 4 -6 -4 5 -7 10 -10 13 -8
2 3 21 -1 41 -9 33 -13 35 -13 18 0 -10 9 -24 17 -30 19 -6 2 -8 8 -4 12 4 4
14 0 23 -9 18 -18 35 -21 35 -7 0 5 -9 12 -19 16 -11 3 -32 21 -47 40 -24 31
-55 50 -39 26 3 -5 1 -12 -4 -15 -4 -3 -8 2 -8 12 0 36 -3 43 -16 36 -6 -4 -9
-3 -4 1 4 5 -1 17 -10 28 -23 27 -5 16 68 -40 71 -54 84 -58 201 -73 92 -12
99 -11 189 15 53 15 117 42 147 62 30 19 73 45 96 58 23 13 62 43 87 67 25 23
66 61 90 83 25 23 48 48 52 58 3 9 11 17 17 17 5 0 10 6 10 14 0 8 13 24 29
37 16 13 27 27 25 31 -3 4 -1 8 5 8 5 0 11 8 14 18 3 14 6 13 14 -7 8 -20 11
-21 16 -8 4 10 2 17 -3 17 -6 0 -10 5 -10 11 0 6 6 9 13 6 19 -7 48 20 89 83
20 30 45 64 57 74 11 10 35 42 53 70 18 28 38 55 45 59 8 5 11 12 8 18 -4 5 1
9 9 9 16 0 22 -21 9 -34 -10 -10 -11 -46 -1 -40 4 3 8 14 8 25 0 10 5 19 10
19 6 0 10 6 10 14 0 8 5 18 11 22 7 4 9 0 5 -12 -3 -11 -8 -37 -10 -59 -5 -39
-5 -39 9 -15 8 14 12 33 9 42 -3 10 2 28 11 40 l17 23 -6 -30 -6 -30 30 35
c16 19 30 38 30 42 0 9 80 140 91 148 3 3 19 31 34 63 16 31 30 55 32 53 2 -2
-27 -62 -64 -135 -87 -168 -89 -171 -102 -184 -21 -21 -12 -37 23 -37 19 0 36
-6 39 -12 4 -10 7 -10 18 0 11 10 10 12 -3 12 -9 0 -19 7 -22 16 -4 9 -2 13 5
8 6 -4 15 -1 19 6 5 8 9 2 12 -15 3 -15 0 -32 -7 -38 -8 -8 -10 -20 -4 -34 6
-15 4 -23 -7 -27 -8 -3 -12 -10 -9 -16 3 -5 -5 -15 -19 -22 -14 -6 -26 -17
-26 -24 0 -7 -10 -23 -22 -34 -13 -12 -23 -25 -23 -30 0 -15 -211 -253 -272
-307 -32 -28 -67 -59 -78 -70 -55 -50 -249 -162 -343 -197 -56 -21 -101 -41
-98 -43 8 -8 219 78 261 107 22 15 74 47 115 71 41 24 103 70 137 103 54 49
65 56 78 46 14 -12 12 -17 -16 -46 -18 -18 -36 -31 -41 -28 -5 3 -7 0 -6 -8 2
-7 -3 -12 -10 -10 -6 1 -11 -2 -10 -7 4 -13 -124 -112 -236 -182 -56 -35 -141
-77 -195 -97 -94 -33 -98 -34 -205 -27 -114 7 -154 19 -212 68 -30 25 -128 60
-138 50 -11 -11 -6 -23 9 -23 12 0 13 -4 6 -19 -12 -22 -5 -32 17 -24 10 4 13
2 8 -5 -4 -7 -4 -13 1 -13 35 -6 52 -5 47 2 -12 20 21 6 77 -32 48 -33 75 -43
145 -55 48 -8 94 -14 103 -12 9 2 -31 12 -88 22 -73 13 -116 26 -143 44 -48
31 -42 42 7 12 27 -16 63 -25 143 -32 108 -11 108 -11 207 22 184 61 375 189
560 374 99 99 227 254 242 292 3 8 10 11 16 7 6 -3 7 -1 3 5 -4 6 2 20 14 32
11 11 20 23 20 28 0 4 11 7 25 8 14 1 29 5 33 9 4 5 -1 5 -10 2 -10 -4 -18 -2
-18 4 0 6 -5 7 -10 4 -6 -3 4 14 20 39 22 31 36 43 47 39 13 -5 14 -3 3 17 -8
15 -8 20 -1 15 7 -4 17 8 26 29 9 20 16 36 18 36 1 0 4 -11 5 -26 1 -17 -2
-23 -10 -18 -7 5 -9 2 -5 -9 3 -9 1 -18 -6 -20 -9 -3 -9 -9 1 -26 7 -11 8 -21
3 -21 -5 0 -13 -10 -17 -22 -4 -13 -9 -25 -13 -28 -9 -8 -45 -62 -60 -92 -8
-16 -18 -28 -23 -28 -4 0 -8 -7 -8 -15 0 -8 -4 -15 -9 -15 -5 0 -11 -8 -14
-17 -2 -10 -41 -63 -85 -119 -195 -245 -486 -453 -727 -519 -55 -15 -104 -31
-109 -35 -8 -8 18 -3 88 15 21 6 27 5 22 -4 -4 -6 -3 -11 3 -11 5 0 48 -22 94
-49 121 -70 132 -71 236 -25 155 69 354 229 455 364 22 30 44 57 47 60 16 13
85 131 151 257 39 76 76 141 82 145 6 4 8 8 3 8 -4 0 7 28 25 63 18 34 34 69
36 77 2 8 9 22 17 30 7 8 16 25 19 38 4 12 11 22 16 22 10 0 -6 -43 -24 -70
-10 -13 -9 -13 9 0 11 8 23 20 27 25 4 6 8 -2 8 -17 0 -16 5 -28 10 -28 7 0 7
-7 0 -22 -11 -22 -11 -23 5 -3 9 11 14 28 11 38 -2 9 -1 15 3 12 5 -2 14 8 21
23 7 15 19 40 27 55 8 16 35 81 59 145 24 64 43 110 44 102 0 -20 -66 -206
-128 -361 -8 -19 -7 -30 1 -38 18 -18 18 -71 -1 -71 -8 0 -12 -3 -9 -6 3 -4 1
-16 -5 -28 -7 -11 -13 -26 -14 -33 -1 -7 -26 -52 -55 -100 -150 -250 -276
-402 -429 -517 -97 -73 -262 -164 -338 -187 -24 -7 -38 -15 -31 -19 6 -4 59 5
117 20 167 42 278 115 468 304 133 134 212 239 269 357 23 49 44 86 47 83 4
-3 9 13 13 36 6 33 10 40 23 35 14 -5 15 -4 5 6 -17 17 -17 34 0 20 8 -6 17
-8 20 -4 4 3 -1 12 -11 19 -11 9 -13 13 -4 14 7 0 11 4 7 9 -3 5 -1 12 4 16 6
3 8 12 5 19 -3 7 2 18 10 25 12 10 16 8 21 -8 5 -17 15 -21 48 -22 27 -1 33
-3 17 -6 -14 -3 -29 -9 -35 -15 -7 -6 -7 -9 0 -8 21 5 36 0 30 -10 -8 -13 21
-13 45 0 26 14 69 -6 63 -29 -2 -10 6 -20 27 -29 16 -8 28 -18 24 -23 -3 -5 2
-9 11 -9 9 0 13 5 10 10 -3 6 -1 10 4 10 6 0 11 -7 11 -15 0 -8 -4 -15 -9 -15
-4 0 -6 -11 -3 -25 4 -21 1 -24 -14 -19 -11 4 -16 4 -13 0 4 -4 15 -8 26 -10
16 -4 19 0 15 19 -4 23 15 71 25 62 2 -3 -1 -15 -7 -27 -6 -12 -10 -24 -7 -26
2 -3 12 12 22 33 10 21 21 40 24 43 14 11 156 294 176 350 16 45 75 170 79
170 4 0 -12 -56 -39 -135 -10 -27 -34 -84 -55 -125 -20 -41 -40 -85 -44 -96
-4 -12 -34 -72 -66 -133 -63 -117 -67 -127 -48 -115 7 5 9 1 6 -13 -3 -12 -2
-27 3 -34 6 -10 9 -8 9 9 0 13 4 21 9 18 5 -3 12 5 15 19 7 26 20 32 31 15 4
-6 11 -8 16 -5 17 11 9 -22 -11 -48 -11 -14 -22 -44 -24 -65 -7 -87 -132 -269
-295 -433 -230 -230 -569 -393 -669 -323 -13 9 -25 14 -28 11 -10 -10 44 -34
91 -40 65 -9 115 7 254 78 155 79 266 162 386 287 157 163 226 264 295 431 17
42 36 77 41 77 4 0 13 10 20 21 9 17 8 20 -3 14 -7 -3 -5 0 5 8 9 8 17 20 17
28 0 8 6 26 14 41 8 14 19 42 26 62 15 45 34 48 25 4 -4 -18 -12 -36 -17 -39
-6 -4 -4 -18 6 -35 8 -16 15 -24 16 -18 0 14 69 24 76 12 10 -16 23 -7 29 21
3 16 13 35 21 42 11 9 14 7 14 -14 0 -14 -4 -28 -9 -31 -10 -7 -9 -19 7 -59 7
-16 12 -43 12 -60 -1 -30 -1 -31 -15 -13 -8 11 -15 15 -15 9 0 -7 4 -15 10
-18 5 -3 7 -20 3 -38 -8 -39 -83 -182 -124 -233 -16 -20 -29 -40 -29 -43 0 -4
-8 -16 -18 -27 -10 -10 -28 -34 -42 -53 -13 -19 -26 -29 -28 -23 -8 25 -32 12
-32 -17 0 -24 -14 -42 -72 -94 -40 -35 -102 -85 -137 -111 -35 -25 -60 -46
-56 -46 12 0 106 71 187 142 42 38 79 68 82 68 3 0 6 -10 6 -23 0 -13 5 -28
10 -33 30 -30 -289 -236 -440 -284 -73 -23 -185 -41 -205 -34 -8 3 -22 1 -32
-6 -14 -9 2 -10 72 -6 99 5 186 31 300 89 84 42 272 165 299 195 21 24 36 28
36 11 0 -7 7 -17 16 -24 14 -10 10 -17 -32 -52 -59 -48 -169 -120 -242 -157
-79 -40 -228 -87 -302 -96 -60 -7 -61 -7 -18 -9 81 -2 214 36 332 96 69 35
214 135 250 172 17 17 35 31 41 31 7 0 -8 21 -32 47 -23 26 -43 57 -42 68 0
20 0 20 9 0 24 -58 121 -105 215 -105 150 0 287 88 446 286 86 107 166 274
185 383 11 67 50 202 56 195 4 -3 6 10 4 30 -2 20 0 33 5 30 5 -3 9 4 9 15 0
12 5 21 10 21 6 0 10 -9 10 -19 0 -11 5 -23 12 -27 7 -4 8 -3 4 4 -4 7 -2 12
4 12 7 0 10 7 6 15 -7 20 -1 19 29 -7 13 -11 22 -26 19 -32 -3 -6 1 -3 10 7 8
11 12 26 9 35 -6 13 -8 13 -14 -4 -7 -17 -8 -17 -8 4 -1 19 3 22 19 17 11 -4
20 -3 19 2 -3 20 2 34 11 28 13 -8 5 -51 -9 -48 -7 2 -7 -5 -1 -23 13 -33 13
-37 -2 -28 -8 5 -9 0 -6 -14 4 -12 2 -25 -3 -28 -5 -3 -7 -9 -4 -14 3 -5 2
-17 -3 -27 -5 -10 -20 -61 -33 -113 -33 -138 -94 -287 -151 -370 -6 -8 1 -3
15 12 14 15 28 24 33 20 4 -4 4 -2 0 5 -3 7 7 34 23 60 16 26 33 60 36 75 4
16 11 25 16 22 5 -3 6 2 3 10 -4 9 -1 16 6 16 7 0 10 7 6 16 -3 9 -2 12 5 9 5
-4 7 -16 3 -28 -3 -12 -3 -19 1 -15 4 4 16 -3 25 -15 10 -12 22 -18 26 -14 5
4 2 12 -5 16 -10 7 -11 13 -2 27 9 17 10 17 11 2 0 -10 5 -18 11 -18 6 0 9 7
5 15 -3 8 -1 15 4 15 6 0 10 15 10 33 1 17 7 46 14 62 l13 30 6 -26 c6 -25 37
-352 37 -396 0 -17 -4 -21 -17 -17 -17 5 -17 5 0 -6 15 -9 17 -28 17 -138 0
-149 -20 -283 -51 -344 -12 -24 -23 -44 -24 -46 -1 -2 -29 9 -61 23 -78 35
-256 90 -341 105 -96 17 -220 4 -333 -34 l-45 -16 55 5 c30 3 62 1 70 -5 13
-9 13 -10 0 -10 -16 0 -131 -56 -140 -68 -3 -4 -24 -20 -47 -36 -57 -38 -55
-49 4 -20 25 13 48 22 50 20 9 -9 -10 -32 -35 -44 -15 -7 -38 -21 -52 -32
l-25 -20 38 15 c22 9 44 14 50 12 13 -4 -32 -47 -50 -47 -7 0 -13 -5 -13 -10
0 -6 -10 -15 -22 -21 -22 -9 -22 -9 4 -6 15 2 26 1 25 -2 -1 -3 4 -15 10 -26
7 -15 7 -37 -4 -85 -8 -41 -11 -87 -7 -124 l6 -60 14 40 c8 21 14 47 14 56 0
21 22 34 77 43 l41 6 -24 36 c-31 47 -30 73 4 106 33 32 52 35 52 7 0 -24 13
-26 30 -5 14 16 35 21 25 6 -3 -6 4 -15 15 -21 11 -6 20 -21 20 -34 0 -30 36
-46 101 -46 41 0 52 4 56 19 5 20 42 41 73 41 13 0 20 7 20 19 0 12 8 19 23
20 12 0 39 2 60 4 32 2 39 -1 44 -21 8 -33 -14 -77 -57 -116 l-38 -35 64 -6
c35 -4 66 -11 69 -15 8 -13 -17 -134 -36 -172 -23 -44 -24 -54 -5 -39 34 28
101 240 82 259 -3 3 -17 0 -30 -6 -20 -9 -29 -8 -47 7 -43 35 14 93 63 62 17
-10 18 -7 18 44 0 35 -4 55 -11 55 -7 0 22 26 64 58 66 50 79 66 111 132 61
127 83 351 62 644 -8 106 -7 128 4 121 10 -6 11 -4 4 6 -12 20 -14 39 -3 39 5
0 6 12 3 26 -5 20 -4 25 6 19 8 -5 11 -26 8 -69 -3 -33 -3 -55 0 -48 2 6 8 10
13 7 4 -3 7 29 5 72 -10 194 -9 468 1 431 9 -35 20 -17 22 34 1 61 10 78 12
22 1 -21 1 -42 0 -46 0 -4 6 -5 14 -2 8 4 13 9 10 13 -2 4 2 8 10 8 8 0 11 -5
8 -11 -3 -6 0 -5 8 2 7 6 20 12 29 11 8 0 10 -3 4 -5 -7 -3 -6 -31 2 -92 7
-48 13 -144 13 -213 1 -97 5 -134 18 -160 9 -19 22 -56 29 -84 10 -41 12 82
13 668 l1 717 -1170 0 c-643 0 -1170 -2 -1170 -5 0 -39 150 -230 263 -337 45
-42 80 -78 77 -81 -3 -2 -49 25 -103 61 -118 78 -265 207 -339 296 l-53 66
-752 0 -753 0 0 -168z m488 -127 c-6 -14 -13 -23 -15 -21 -5 5 15 46 22 46 3
0 -1 -11 -7 -25z m402 -134 c0 -5 -9 -19 -20 -32 l-20 -24 6 30 c4 17 9 33 11
38 5 9 23 -1 23 -12z m1311 -82 c-5 -13 -10 -19 -10 -12 -1 15 10 45 15 40 3
-2 0 -15 -5 -28z m-15 -55 c-4 -9 -9 -15 -11 -12 -3 3 -3 13 1 22 4 9 9 15 11
12 3 -3 3 -13 -1 -22z m-1239 -116 c-3 -8 -6 -5 -6 6 -1 11 2 17 5 13 3 -3 4
-12 1 -19z m1997 -102 c-3 -15 -8 -25 -11 -23 -2 3 -1 17 3 31 3 15 8 25 11
23 2 -3 1 -17 -3 -31z m-44 -132 c-16 -49 -29 -83 -29 -76 -1 17 50 174 55
170 2 -2 -10 -44 -26 -94z m-1250 34 c0 -6 -7 -5 -15 2 -8 7 -15 17 -15 22 0
6 7 5 15 -2 8 -7 15 -17 15 -22z m-20 -39 c-7 -11 -14 -18 -17 -15 -3 3 0 12
7 21 18 21 23 19 10 -6z m1801 -198 c-20 -106 -54 -218 -82 -276 -10 -20 -22
-30 -36 -29 -12 0 -24 -5 -27 -13 -3 -7 0 -12 6 -10 26 5 15 -24 -30 -84 -82
-107 -195 -212 -268 -249 -62 -32 -72 -34 -169 -35 -57 0 -107 3 -111 8 -4 4
15 31 43 60 28 28 74 84 102 122 29 39 59 78 67 88 8 9 14 21 14 26 0 5 3 11
8 13 9 4 72 106 72 117 0 4 9 16 20 26 11 10 17 22 13 28 -4 6 0 8 10 4 10 -3
17 -2 17 3 0 6 -4 10 -10 10 -5 0 -7 7 -3 17 5 13 11 10 37 -18 16 -19 39 -39
51 -45 11 -5 19 -18 19 -27 -1 -9 1 -16 5 -15 22 2 32 -4 28 -16 -4 -10 -1
-13 7 -10 8 3 17 1 21 -5 8 -14 35 -14 35 -1 0 6 -9 10 -20 10 -28 0 -31 48
-4 63 8 4 14 15 14 22 0 8 5 15 10 15 6 0 10 6 10 13 0 7 9 29 20 50 11 20 18
37 15 37 -3 0 4 19 16 43 12 23 22 44 22 47 -1 7 5 21 39 108 15 40 28 81 28
91 0 43 16 28 24 -24 7 -44 4 -80 -13 -164z m-1344 177 c-3 -8 -6 -5 -6 6 -1
11 2 17 5 13 3 -3 4 -12 1 -19z m-1405 -7 c-6 -16 -18 -32 -88 -118 -16 -20
-21 -22 -21 -10 0 10 4 17 8 17 4 0 29 29 55 65 26 36 49 65 51 65 1 0 -1 -8
-5 -19z m1391 -39 c6 -30 5 -32 -9 -18 -10 10 -13 24 -9 37 8 25 10 23 18 -19z
m-2028 -22 c-3 -5 -12 -10 -18 -10 -7 0 -6 4 3 10 19 12 23 12 15 0z m2825 -9
c0 -6 -4 -13 -10 -16 -5 -3 -10 1 -10 9 0 9 5 16 10 16 6 0 10 -4 10 -9z
m-1980 -83 c0 -15 3 -18 13 -11 6 6 21 13 32 16 l20 7 -20 -16 c-11 -8 -19
-20 -17 -26 2 -6 -3 -15 -10 -21 -10 -6 -9 -8 4 -4 21 7 52 -27 44 -48 -4 -11
-2 -14 6 -9 7 4 26 9 42 11 28 3 29 2 11 -11 -11 -8 -23 -12 -27 -10 -5 3 -8
0 -8 -6 0 -6 -4 -9 -8 -6 -4 2 -8 -6 -8 -19 0 -13 4 -21 8 -19 4 3 8 1 8 -4 0
-13 -25 -33 -33 -27 -4 3 -5 2 -2 -1 11 -15 -162 -167 -178 -157 -6 3 -7 1 -3
-6 5 -7 -3 -16 -21 -24 -15 -7 -46 -24 -68 -39 -55 -37 -233 -98 -267 -91 -32
6 -37 35 -13 67 8 10 12 23 9 27 -3 5 0 9 5 9 6 0 11 7 11 15 0 8 5 15 10 15
6 0 10 7 10 15 0 8 5 15 10 15 6 0 10 5 10 11 0 6 9 23 20 39 11 15 21 38 23
51 3 18 22 34 70 61 37 20 67 33 67 30 0 -4 5 1 11 11 5 9 16 17 24 17 8 0 18
6 22 13 4 8 40 37 78 67 73 55 101 79 76 65 -9 -5 -12 -4 -7 3 4 6 14 8 23 5
12 -5 14 -3 8 7 -5 9 -4 11 3 6 7 -4 12 -16 12 -28z m277 0 c-3 -8 -6 -5 -6 6
-1 11 2 17 5 13 3 -3 4 -12 1 -19z m878 -67 c-74 -176 -138 -277 -266 -415
-147 -160 -332 -295 -450 -330 -30 -8 -55 -13 -57 -11 -2 2 33 22 77 45 128
64 279 179 373 284 74 83 253 337 319 453 13 23 25 40 27 38 2 -1 -8 -30 -23
-64z m825 49 c0 -5 -2 -10 -4 -10 -3 0 -8 5 -11 10 -3 6 -1 10 4 10 6 0 11 -4
11 -10z m-1381 -55 c-13 -19 -27 -35 -31 -35 -5 0 -8 -5 -8 -11 0 -12 -86
-123 -117 -152 -17 -15 -22 -16 -32 -3 -10 11 -8 17 8 28 12 8 18 18 13 23 -4
4 1 5 11 2 12 -4 16 -3 11 4 -8 14 56 80 69 72 6 -3 7 -2 4 4 -6 10 48 73 64
73 4 0 11 9 14 21 4 11 9 18 12 15 3 -3 -5 -21 -18 -41z m1406 3 c6 -4 2 -8
-7 -8 -10 0 -18 7 -18 17 0 9 3 12 8 7 4 -5 12 -12 17 -16z m-297 -8 c-9 -14
-14 -16 -20 -7 -6 10 5 20 30 26 1 1 -3 -8 -10 -19z m370 -12 c-1 -7 3 -23 10
-35 10 -18 9 -24 -5 -32 -13 -7 -14 -10 -4 -11 12 0 12 -3 -1 -17 -8 -10 -20
-33 -28 -50 -7 -18 -16 -33 -21 -33 -5 0 -9 -6 -9 -14 0 -8 -6 -21 -13 -28 -7
-7 -19 -28 -26 -45 -7 -18 -18 -33 -23 -33 -5 0 -12 -8 -15 -17 -20 -52 -176
-243 -199 -243 -7 0 -17 15 -22 33 -8 29 -5 37 33 82 73 87 223 319 230 355 1
3 11 20 22 39 12 19 20 38 17 42 -2 4 7 6 21 3 14 -2 25 0 25 6 0 5 2 10 5 10
3 0 5 -6 3 -12z m-78 -8 c0 -5 -5 -10 -11 -10 -5 0 -7 5 -4 10 3 6 8 10 11 10
2 0 4 -4 4 -10z m-1874 -39 c-3 -5 -16 -11 -28 -14 -22 -6 -22 -5 -4 8 22 17
40 20 32 6z m2731 -13 c-3 -8 -6 -5 -6 6 -1 11 2 17 5 13 3 -3 4 -12 1 -19z
m-2137 -16 c0 -13 -2 -14 -9 -3 -5 8 -11 9 -15 3 -6 -10 10 -27 27 -27 4 0 6
-4 5 -10 -2 -5 -9 -9 -15 -9 -17 2 -16 -4 2 -22 14 -14 19 -11 16 9 -2 16 29
6 42 -14 15 -21 12 -63 -5 -53 -5 3 -4 12 3 20 9 11 8 14 -4 14 -11 0 -14 -8
-11 -30 3 -17 1 -30 -5 -30 -6 0 -11 -9 -11 -20 0 -12 -10 -31 -23 -43 -13
-12 -26 -30 -30 -39 -3 -10 -11 -18 -17 -18 -5 0 -10 -6 -10 -13 0 -23 -175
-195 -260 -255 -99 -69 -229 -132 -274 -132 -32 0 -218 98 -211 111 3 4 26 12
52 18 105 27 327 163 481 296 63 54 244 245 250 264 5 16 22 3 22 -17z m27 3
c0 -8 -4 -12 -9 -9 -5 3 -6 10 -3 15 9 13 12 11 12 -6z m2116 -20 c-3 -9 -8
-14 -10 -11 -3 3 -2 9 2 15 9 16 15 13 8 -4z m-552 -98 c-10 -9 -11 -8 -5 6 3
10 9 15 12 12 3 -3 0 -11 -7 -18z m-3164 -70 c0 -8 -6 -14 -14 -14 -17 0 -17
14 0 20 6 3 12 6 13 6 0 1 1 -5 1 -12z m2880 -38 c2 -16 -1 -18 -12 -9 -9 7
-15 8 -20 0 -3 -5 -1 -10 6 -10 10 0 10 -3 1 -12 -10 -10 -15 -10 -22 2 -6 9
-2 19 12 32 27 23 33 23 35 -3z m-27 -44 c22 13 9 -15 -21 -44 -17 -17 -27
-31 -22 -31 4 0 0 -5 -9 -11 -10 -5 -18 -16 -18 -24 0 -8 -26 -41 -59 -74 -32
-33 -56 -62 -54 -65 2 -2 0 -7 -6 -11 -6 -3 -11 -2 -11 3 0 5 -10 12 -22 15
-21 6 -21 7 9 39 83 88 103 110 103 116 0 3 7 12 15 21 8 9 23 26 35 39 11 12
20 27 20 33 0 8 4 8 15 -1 8 -6 19 -9 25 -5z m-2596 -194 c-2 -3 -10 1 -16 7
-9 9 -15 9 -27 -1 -14 -10 -14 -10 -3 5 11 14 17 15 32 5 11 -6 17 -13 14 -16z
m56 -1 c14 -11 21 -20 17 -20 -5 0 -20 9 -34 20 -14 11 -22 20 -17 20 5 0 20
-9 34 -20z m2919 -340 c65 -11 141 -43 141 -60 0 -5 -77 -8 -182 -8 -148 1
-191 -1 -225 -15 -56 -21 -59 -1 -5 36 74 50 159 65 271 47z m-242 -142 c-3
-7 -5 -2 -5 12 0 14 2 19 5 13 2 -7 2 -19 0 -25z m158 -78 c37 -40 -7 -100
-59 -80 -30 11 -34 44 -10 78 19 27 45 28 69 2z"/>
<path d="M3090 2655 c0 -8 4 -15 10 -15 5 0 7 7 4 15 -4 8 -8 15 -10 15 -2 0
-4 -7 -4 -15z"/>
<path d="M3167 2549 c7 -7 15 -10 18 -7 3 3 -2 9 -12 12 -14 6 -15 5 -6 -5z"/>
<path d="M2940 2779 c0 -5 5 -7 10 -4 6 3 10 8 10 11 0 2 -4 4 -10 4 -5 0 -10
-5 -10 -11z"/>
<path d="M2921 2744 c0 -11 3 -14 6 -6 3 7 2 16 -1 19 -3 4 -6 -2 -5 -13z"/>
<path d="M1621 2604 c0 -11 3 -14 6 -6 3 7 2 16 -1 19 -3 4 -6 -2 -5 -13z"/>
<path d="M384 3610 c0 -13 4 -16 10 -10 7 7 7 13 0 20 -6 6 -10 3 -10 -10z"/>
<path d="M1215 3569 c-11 -16 -1 -19 13 -3 7 8 8 14 3 14 -5 0 -13 -5 -16 -11z"/>
<path d="M1111 3554 c0 -11 3 -14 6 -6 3 7 2 16 -1 19 -3 4 -6 -2 -5 -13z"/>
<path d="M945 3506 c-14 -16 -17 -36 -6 -36 5 0 11 10 14 22 7 27 5 30 -8 14z"/>
<path d="M890 3475 c0 -8 5 -15 10 -15 6 0 10 7 10 15 0 8 -4 15 -10 15 -5 0
-10 -7 -10 -15z"/>
<path d="M1502 3100 c9 -13 14 -16 20 -7 4 6 2 15 -5 19 -21 14 -28 9 -15 -12z"/>
<path d="M1477 3086 c-3 -8 1 -17 10 -20 22 -9 24 -4 8 17 -10 14 -14 15 -18
3z"/>
<path d="M1967 3053 c-4 -3 -7 -11 -7 -17 0 -6 5 -5 12 2 6 6 9 14 7 17 -3 3
-9 2 -12 -2z"/>
<path d="M1555 3031 c-6 -11 13 -26 22 -17 4 3 1 6 -6 6 -7 0 -9 5 -6 10 3 6
4 10 1 10 -3 0 -7 -4 -11 -9z"/>
<path d="M3530 3029 c0 -5 5 -7 10 -4 6 3 10 8 10 11 0 2 -4 4 -10 4 -5 0 -10
-5 -10 -11z"/>
<path d="M1939 3003 c-13 -16 -12 -17 4 -4 9 7 17 15 17 17 0 8 -8 3 -21 -13z"/>
<path d="M2133 2978 c2 -7 0 -23 -4 -35 -5 -14 -5 -23 1 -23 6 0 10 9 10 20 0
11 4 20 10 20 5 0 7 7 4 15 -7 18 -28 20 -21 3z"/>
<path d="M2664 2840 c-6 -22 -7 -40 -3 -40 5 0 9 9 9 19 0 11 4 21 9 23 4 2 5
11 2 21 -5 14 -9 8 -17 -23z"/>
<path d="M2778 2843 c-18 -21 -30 -53 -20 -53 6 1 43 70 37 70 -1 0 -9 -8 -17
-17z"/>
<path d="M2710 2834 c0 -8 5 -12 10 -9 6 4 8 11 5 16 -9 14 -15 11 -15 -7z"/>
<path d="M2820 2835 c0 -8 4 -15 8 -15 5 0 9 7 9 15 0 8 -4 15 -9 15 -4 0 -8
-7 -8 -15z"/>
<path d="M2524 2780 c0 -11 4 -20 8 -20 4 0 8 9 8 20 0 11 -4 20 -8 20 -4 0
-8 -9 -8 -20z"/>
<path d="M2443 2748 c-1 -11 -6 -24 -11 -27 -14 -9 -25 -51 -14 -51 5 0 12 9
15 21 4 14 10 18 18 13 8 -5 11 -2 6 8 -3 9 -1 20 5 26 6 6 7 15 4 21 -11 18
-22 13 -23 -11z"/>
<path d="M2487 2695 c3 -8 9 -12 14 -9 12 7 11 11 -5 17 -10 4 -13 1 -9 -8z"/>
<path d="M2498 2666 c-10 -7 -15 -16 -11 -19 8 -9 -17 -38 -28 -31 -5 3 -6 -2
-3 -10 3 -9 2 -16 -3 -16 -5 0 -19 -19 -31 -42 l-22 -43 25 30 c35 41 98 136
93 140 -1 2 -11 -2 -20 -9z"/>
<path d="M3598 2653 c6 -2 10 -8 8 -12 -3 -4 1 -8 9 -8 11 0 12 4 4 14 -6 7
-17 13 -23 12 -7 0 -6 -2 2 -6z"/>
<path d="M2375 2640 c-3 -5 -1 -10 4 -10 6 0 11 5 11 10 0 6 -2 10 -4 10 -3 0
-8 -4 -11 -10z"/>
<path d="M2359 2468 c-7 -12 -37 -50 -68 -83 -41 -44 -44 -50 -12 -20 53 49
105 114 98 121 -3 3 -11 -5 -18 -18z"/>
<path d="M3580 2460 c14 -11 31 -20 38 -20 14 0 17 19 2 21 -5 1 -14 2 -19 3
-5 0 -13 4 -17 9 -4 4 -12 7 -18 7 -6 0 0 -9 14 -20z"/>
<path d="M3654 2436 c11 -9 29 -16 40 -15 17 1 16 2 -6 9 -14 4 -32 11 -40 15
-7 3 -4 -1 6 -9z"/>
<path d="M18 2393 c7 -3 16 -2 19 1 4 3 -2 6 -13 5 -11 0 -14 -3 -6 -6z"/>
<path d="M55 2380 c3 -5 8 -10 11 -10 2 0 4 5 4 10 0 6 -5 10 -11 10 -5 0 -7
-4 -4 -10z"/>
<path d="M30 2354 c0 -8 5 -12 10 -9 6 4 8 11 5 16 -9 14 -15 11 -15 -7z"/>
<path d="M70 2349 c0 -5 5 -7 10 -4 6 3 10 8 10 11 0 2 -4 4 -10 4 -5 0 -10
-5 -10 -11z"/>
<path d="M0 2317 c0 -36 10 -57 26 -57 18 0 18 10 0 35 -7 11 -14 24 -14 28
-1 22 -12 17 -12 -6z"/>
<path d="M545 2280 l-70 -6 60 -1 c33 -1 83 2 110 7 47 7 47 7 10 7 -22 0 -71
-3 -110 -7z"/>
<path d="M2129 2233 c-13 -16 -12 -17 4 -4 9 7 17 15 17 17 0 8 -8 3 -21 -13z"/>
<path d="M2260 2049 c-22 -18 -22 -19 -3 -10 12 6 25 16 28 21 9 15 3 12 -25
-11z"/>
<path d="M856 1990 c-26 -11 -51 -21 -54 -24 -12 -13 9 -18 44 -12 20 4 33 10
29 14 -3 4 11 14 32 24 52 23 12 21 -51 -2z"/>
<path d="M948 1983 c7 -3 16 -2 19 1 4 3 -2 6 -13 5 -11 0 -14 -3 -6 -6z"/>
<path d="M3990 1953 c-1 -10 -18 -78 -38 -152 l-38 -133 -35 31 c-33 31 -33
33 -15 47 18 12 18 14 3 14 -10 0 -29 -7 -42 -16 -13 -9 -30 -14 -37 -11 -8 4
-6 6 5 6 25 1 21 13 -14 44 -29 25 -67 38 -55 18 5 -8 -38 -32 -121 -68 -39
-16 -41 -26 -9 -41 13 -6 57 -40 98 -76 71 -61 78 -65 131 -68 l55 -3 -45
-125 c-24 -69 -58 -163 -75 -210 -16 -47 -45 -125 -64 -173 -19 -49 -32 -92
-29 -98 4 -5 30 -9 58 -9 81 0 128 37 188 150 13 25 27 47 32 48 4 2 5 8 1 13
-3 5 0 9 6 9 6 0 9 4 5 9 -3 5 -1 12 5 16 6 4 7 11 4 17 -4 7 -2 8 4 4 8 -4
12 0 12 11 0 15 2 16 10 3 6 -10 10 119 10 373 0 213 -2 387 -5 387 -3 0 -5
-8 -5 -17z m-55 -303 c-11 -5 -33 -8 -50 -8 -29 0 -29 0 -5 8 14 4 36 8 50 8
23 1 23 0 5 -8z"/>
<path d="M1885 1870 c3 -5 11 -10 16 -10 6 0 7 5 4 10 -3 6 -11 10 -16 10 -6
0 -7 -4 -4 -10z"/>
<path d="M1 1475 l0 -280 37 -30 c20 -16 32 -23 28 -15 -4 8 3 2 16 -13 48
-59 149 -159 155 -154 3 3 1 20 -5 36 -9 25 -8 31 3 31 8 0 17 -5 20 -10 16
-26 218 -110 262 -110 13 0 23 5 23 10 0 6 -10 10 -22 10 -30 0 -158 49 -182
69 -10 9 -21 15 -25 15 -14 -3 -31 9 -25 17 3 5 2 9 -3 8 -18 -5 -62 25 -74
50 -17 33 -35 52 -42 45 -3 -3 -8 4 -12 15 -3 12 -11 19 -16 16 -5 -4 -9 -2
-9 3 0 5 -9 19 -20 32 -30 34 -15 38 19 4 57 -56 115 -100 208 -156 104 -63
248 -107 294 -89 22 8 21 9 -11 9 -103 2 -193 35 -315 117 -132 89 -118 63
-205 390 -20 77 -51 167 -68 200 l-31 60 0 -280z"/>
<path d="M288 1702 c-54 -5 -57 -29 -5 -38 l42 -8 -35 -6 c-29 -5 -22 -7 40
-13 72 -7 122 -27 70 -27 -24 0 -24 -1 8 -21 38 -25 40 -36 10 -42 -19 -3 -17
-5 6 -6 34 -1 116 -38 116 -52 0 -5 8 -9 19 -9 32 0 148 -46 183 -74 52 -39
114 -57 176 -51 29 2 58 8 64 11 7 5 9 -1 5 -18 -4 -16 -2 -26 6 -27 50 -10
253 -11 298 -2 29 6 68 14 84 17 17 3 42 10 57 15 15 6 31 9 35 6 5 -3 15 -2
23 3 9 6 -2 11 -33 15 -82 13 -61 31 28 26 11 -1 -5 9 -35 21 l-55 23 40 5
c22 3 45 2 52 -3 7 -5 20 -7 30 -4 26 6 -62 44 -216 93 -27 9 1 19 67 25 79 6
70 11 -62 34 -64 11 -168 19 -295 21 -214 4 -244 8 -436 52 -130 30 -218 40
-287 34z m914 -194 c76 -11 118 -33 118 -61 0 -15 -236 -13 -354 3 -83 12
-149 37 -143 54 8 26 224 28 379 4z m-362 -103 c0 -11 -29 -11 -33 -1 -4 10 1
12 14 9 10 -3 19 -7 19 -8z m487 -17 c2 -17 0 -19 -7 -8 -5 8 -6 18 -4 22 8
12 10 10 11 -14z m-194 -8 c-3 -12 -8 -19 -11 -16 -5 6 5 36 12 36 2 0 2 -9
-1 -20z m-43 -40 c0 -5 -7 -10 -15 -10 -8 0 -15 5 -15 10 0 6 7 10 15 10 8 0
15 -4 15 -10z"/>
<path d="M3745 1529 c4 -12 1 -21 -9 -25 -9 -3 -13 -10 -10 -15 3 -5 -1 -6 -9
-3 -9 3 -19 -7 -28 -28 -11 -29 -45 -84 -59 -98 -25 -25 -59 -93 -53 -105 7
-12 14 -10 36 13 43 43 97 109 97 118 0 5 11 22 25 37 14 15 25 34 23 43 -2
10 5 18 15 20 25 4 35 14 13 14 -12 0 -16 5 -11 19 4 13 0 20 -15 24 -17 4
-20 2 -15 -14z"/>
<path d="M3030 1491 c0 -16 22 -25 29 -12 8 12 125 5 153 -10 23 -12 26 -12
38 11 10 19 8 20 -105 20 -65 0 -115 -4 -115 -9z"/>
<path d="M2920 1185 c0 -12 131 -64 147 -58 11 4 14 3 9 -5 -4 -7 -2 -12 3
-12 6 0 11 6 11 13 0 6 -33 24 -74 40 -72 27 -96 32 -96 22z"/>
<path d="M3 1143 c1 -17 4 -19 14 -11 15 12 18 22 4 14 -5 -4 -11 0 -14 6 -3
7 -4 3 -4 -9z"/>
<path d="M3990 1135 c0 -8 -4 -15 -9 -15 -5 0 -19 -21 -31 -47 -56 -120 -144
-182 -239 -169 -37 5 -54 14 -83 46 -34 35 -52 70 -29 56 5 -4 7 3 4 14 -3 11
-9 20 -13 20 -4 0 -5 11 -2 25 3 18 0 25 -12 25 -9 0 -16 -6 -16 -12 0 -35 25
-97 51 -126 16 -18 29 -37 29 -43 0 -6 -14 -44 -31 -85 -17 -41 -29 -77 -26
-80 9 -10 131 57 204 112 40 30 91 79 114 109 23 30 46 55 51 55 5 0 6 -6 2
-12 -5 -10 -4 -10 6 -1 7 6 19 9 26 6 11 -4 14 10 14 66 0 39 -2 71 -5 71 -3
0 -5 -7 -5 -15z"/>
<path d="M34 1128 c-4 -7 -4 -10 1 -6 4 4 15 2 24 -5 14 -11 14 -10 2 6 -16
20 -18 21 -27 5z"/>
<path d="M3130 1106 c0 -8 14 -15 35 -18 40 -5 40 -5 19 16 -19 20 -54 21 -54
2z"/>
<path d="M235 1090 c3 -5 8 -10 11 -10 2 0 4 5 4 10 0 6 -5 10 -11 10 -5 0 -7
-4 -4 -10z"/>
<path d="M737 1039 c-41 -45 -37 -52 7 -11 l29 27 -22 -33 c-27 -38 -107 -82
-151 -82 -18 0 -29 -4 -25 -10 10 -16 37 -12 101 19 38 18 72 43 92 69 36 45
37 48 18 55 -8 3 -29 -11 -49 -34z"/>
<path d="M668 993 c7 -3 16 -2 19 1 4 3 -2 6 -13 5 -11 0 -14 -3 -6 -6z"/>
<path d="M3980 989 c0 -5 5 -7 10 -4 6 3 10 8 10 11 0 2 -4 4 -10 4 -5 0 -10
-5 -10 -11z"/>
<path d="M0 983 c0 -3 24 -31 53 -62 40 -43 71 -64 136 -93 55 -25 92 -36 108
-32 28 7 29 15 6 41 -12 13 -42 24 -82 31 -52 9 -75 20 -137 67 -73 55 -84 61
-84 48z"/>
<path d="M459 853 c-2 -6 -47 -45 -99 -87 l-95 -76 -65 0 c-36 0 -96 -3 -133
-7 l-69 -6 4 -98 3 -98 70 -35 c56 -29 90 -38 169 -47 78 -8 100 -8 107 2 4 7
15 14 25 15 9 2 21 9 25 16 5 7 9 10 9 6 0 -6 75 35 108 58 2 1 -33 51 -77
110 -45 60 -81 116 -81 126 0 12 67 77 109 104 1 2 1 9 -1 16 -3 9 -6 10 -9 1z
m-329 -383 c-12 -8 -12 -10 -1 -10 8 0 12 -3 8 -6 -9 -9 -28 6 -22 17 4 5 12
9 18 9 7 0 6 -4 -3 -10z m37 -25 c0 -8 -7 -15 -15 -15 -12 0 -12 3 -2 15 7 8
13 15 15 15 1 0 2 -7 2 -15z"/>
<path d="M3370 801 c0 -5 4 -11 9 -13 5 -1 41 -34 81 -72 l73 -68 -18 -37
c-81 -171 -318 -441 -495 -566 l-64 -45 57 0 c41 0 71 7 110 26 52 26 55 29
76 96 17 52 26 68 39 66 9 -2 20 -7 24 -13 5 -6 8 -5 8 3 0 19 34 14 53 -8 9
-11 12 -20 6 -20 -6 0 -7 -6 -1 -16 7 -12 1 -32 -19 -70 -16 -30 -29 -56 -29
-59 0 -3 33 -5 74 -5 l73 0 6 53 c3 28 11 64 18 79 11 25 13 26 24 11 7 -9 17
-13 23 -9 7 4 12 2 12 -4 0 -6 6 -10 14 -8 8 2 22 -6 31 -17 9 -11 14 -14 10
-7 -3 6 -1 12 5 12 6 0 8 5 4 12 -4 7 -3 8 4 4 7 -4 12 -16 12 -27 0 -23 10
-24 36 -3 18 15 18 15 -5 8 -17 -4 -22 -2 -19 7 6 17 48 19 48 3 0 -7 8 -18
18 -24 16 -11 16 -11 0 -6 -10 3 -18 1 -18 -4 0 -6 7 -10 15 -10 8 0 15 -6 15
-12 0 -10 3 -9 9 1 7 11 9 11 13 0 3 -9 6 -8 11 4 3 9 2 17 -2 17 -10 0 -125
170 -119 175 2 2 35 -25 73 -60 54 -49 78 -64 110 -68 22 -3 40 -5 41 -4 1 1
-2 36 -6 77 -9 75 -5 120 10 120 7 0 17 -79 22 -173 2 -35 4 -37 37 -37 20 0
55 7 78 16 l43 17 0 92 0 91 -65 13 c-36 7 -97 28 -136 47 -39 19 -84 34 -101
34 -24 0 -45 15 -106 75 -41 41 -73 77 -71 79 3 3 38 -17 78 -44 80 -55 77
-54 186 -39 65 9 85 17 141 56 62 43 83 67 71 79 -3 4 -52 0 -109 -6 -88 -11
-119 -11 -211 3 l-108 16 -67 59 c-37 33 -78 72 -91 86 -25 27 -41 33 -41 17z
m-69 -553 c-30 -19 -32 -23 -17 -34 15 -10 15 -12 -4 -17 -11 -3 -18 -1 -14 4
3 5 1 9 -5 9 -5 0 -12 -6 -14 -12 -4 -9 -6 -9 -6 -1 -1 13 68 73 84 73 5 0 -5
-10 -24 -22z m463 -67 c-4 -17 -9 -30 -11 -27 -3 2 -2 19 2 36 9 41 17 33 9
-9z"/>
<path d="M488 445 c-21 -24 -38 -48 -38 -54 0 -6 -4 -11 -10 -11 -5 0 -10 -5
-10 -12 0 -9 3 -9 12 0 15 15 38 -3 38 -30 0 -28 38 -78 58 -78 10 0 26 -6 37
-14 36 -24 139 -55 205 -60 l65 -5 -24 20 c-77 64 -221 205 -251 244 -18 25
-36 45 -39 45 -3 -1 -23 -20 -43 -45z"/>
<path d="M3935 415 c-16 -8 -48 -15 -70 -15 -57 -2 -18 -15 68 -24 l67 -7 0
31 c0 34 -15 37 -65 15z"/>
<path d="M247 283 c-49 -13 -57 -18 -55 -36 3 -19 -4 -23 -46 -31 -47 -8 -58
-7 -134 21 -6 3 -12 1 -12 -5 0 -5 21 -15 46 -22 37 -11 62 -11 126 -1 44 7
87 14 96 17 21 6 -16 -12 -43 -21 -11 -3 -15 -9 -9 -13 5 -4 21 -25 34 -47 28
-46 57 -75 77 -75 7 0 13 -4 13 -10 0 -5 11 -12 25 -16 14 -3 25 -10 25 -16 0
-5 4 -7 9 -4 5 3 14 0 20 -8 9 -11 18 -12 44 -2 18 6 38 17 45 24 16 14 52 16
52 2 0 -5 5 -10 12 -10 9 0 9 3 0 12 -7 7 -12 20 -12 30 0 9 -8 22 -17 27 -10
6 -13 11 -5 11 10 0 10 4 0 20 -9 13 -24 20 -45 20 -29 0 -39 9 -89 75 -62 83
-62 83 -157 58z m207 -248 c-4 -8 -11 -12 -16 -9 -6 4 -5 10 3 15 19 12 19 11
13 -6z"/>
<path d="M825 149 c-16 -6 -65 -11 -108 -12 -71 -2 -77 -4 -75 -22 3 -22 28
-48 82 -90 27 -21 43 -25 86 -24 l53 2 -7 69 c-7 80 -15 81 101 -10 46 -35 90
-62 99 -60 9 2 -26 33 -89 81 -57 42 -106 77 -108 76 -2 0 -17 -5 -34 -10z"/>
<path d="M3730 58 c0 -7 -3 -23 -6 -35 -6 -22 -4 -23 50 -23 31 0 56 4 56 10
0 5 -22 21 -50 35 -34 17 -50 21 -50 13z"/>
<path d="M516 21 c-4 -5 3 -7 14 -4 23 6 26 13 6 13 -8 0 -17 -4 -20 -9z"/>
</g>
</svg>
