<?xml version="1.0" encoding="UTF-8"?>
<svg id="_レイヤー_2" data-name="レイヤー 2" xmlns="http://www.w3.org/2000/svg" xmlns:xlink="http://www.w3.org/1999/xlink" viewBox="0 0 870 272">
  <defs>
    <style>
      .cls-1 {
        stroke-width: 8px;
      }

      .cls-1, .cls-2 {
        fill: none;
      }

      .cls-1, .cls-3 {
        stroke: #4d4d4d;
        stroke-miterlimit: 10;
      }

      .cls-4, .cls-3 {
        fill: #4d4d4d;
      }

      .cls-5 {
        clip-path: url(#clippath);
      }

      .cls-3 {
        font-family: AB-suzume-90ms-RKSJ-H, AB-suzume;
        font-size: 168.47px;
        stroke-width: 2px;
      }
    </style>
    <clipPath id="clippath">
      <rect class="cls-2" x="647" width="220" height="266"/>
    </clipPath>
  </defs>
  <g id="_レイヤー_1-2" data-name="レイヤー 1">
    <g class="cls-5">
      <g>
        <path class="cls-4" d="m647.23,462.81c.56-1.9,1.08-3.81,1.69-5.69,2.44-7.53,4.83-15.08,7.39-22.57,1.76-5.13,3.67-10.21,5.69-15.24,2.21-5.52,4.07-11.14,5.5-16.92.56-2.28,1.17-4.54,1.82-6.8.31-1.05.73-2.07,1.18-3.07.64-1.4,1.35-2.77,2.05-4.14.52-1.02.63-2.06.47-3.2-.3-2.25-.48-4.51-.74-6.76-.41-3.42-.74-6.84-1.31-10.23-.38-2.23-1.08-4.41-1.71-6.59-1.24-4.29-2.56-8.57-3.79-12.86-.4-1.41-.68-2.85-.96-4.29-.55-2.8-1.11-5.61-1.58-8.43-.58-3.47-1.09-6.94-1.6-10.42-.23-1.59-.34-3.21-.6-4.79-.16-.97-.1-1.89.15-2.82.81-3.05,1.45-6.15,2.46-9.12.77-2.27,2.01-4.39,3.06-6.56.25-.53.65-.99.88-1.52,1.55-3.5,3.68-6.67,5.7-9.9,1.6-2.55,3.42-4.94,5.6-7.03,2.44-2.33,4.59-4.92,6.75-7.51,1.26-1.52,2.5-3.08,3.93-4.44,2.15-2.05,3.78-4.47,5.47-6.86.89-1.26,1.71-2.56,2.57-3.84,1.23-1.83,2.6-3.53,4.16-5.1,2.41-2.45,4.8-4.93,7.05-7.54,1.18-1.38,2.04-3.03,3.02-4.58,1.56-2.48,3.11-4.97,4.64-7.47.48-.79,1.19-1.29,1.93-1.75,3.99-2.46,7.99-4.92,11.98-7.37,2-1.23,3.99-2.47,6-3.67.66-.39,1.13-.89,1.42-1.61.55-1.36,1.16-2.69,1.7-4.05.54-1.35.33-2.26-.85-3.67-.16.38-.34.69-.42,1.02-.13.49-.16,1.01-.31,1.5-.05.15-.31.27-.5.33-.1.03-.32-.07-.37-.17-.24-.45-.5-.9-.63-1.38-.24-.85-.38-1.72-.58-2.57-.13-.56-.52-.92-1.08-.94-.8-.03-1.62-.06-2.4.07-3.47.57-6.93,1.19-10.4,1.79-.65.11-1.31.17-1.96.24-1.09.11-2.18.23-3.28.28-.65.03-1.32.02-1.95-.1-2.67-.5-4.49-2.04-5.42-4.6-1.38-3.81-3.43-7.28-5.4-10.79-.66-1.18-1.11-2.38-.96-3.76.04-.36,0-.72,0-.96-.5-.82-1.29-.91-1.93-1.22-.91-.44-1.58-1.06-1.82-2.07-.4-1.64-1.43-2.84-2.61-3.99-.68-.66-1.3-1.4-1.82-2.19-.79-1.19-.57-2.18.58-3.04.35-.26.75-.46,1.13-.68,2.1-1.24,3.93-2.79,5.63-4.54,2.22-2.28,3.26-5.02,3.41-8.12.09-1.9.04-3.81,0-5.72-.03-1.48-.4-2.88-1.15-4.19-.51-.89-.85-1.86-1.29-2.79-.14-.3-.23-.72-.83-.65,0,1.86.86,3.65.76,5.47-.75.27-1.01-.13-1.21-.51-.65-1.23-1.32-2.46-1.89-3.73-.45-1.01-1.06-1.74-2.41-1.69.1-.48.17-.82.23-1.15.14-.83-.27-1.29-1.05-1.18-.84.13-1.49.58-2.06,1.17-.4.41-.37.94-.27,1.45.19.9.02,1.75-.4,2.55-.35.67-1.05.87-1.67.46-.3-.2-.6-.43-.83-.71-1.36-1.63-2.7-3.27-4.03-4.92-1.06-1.31-2.11-2.63-3.13-3.96-.4-.52-.75-1.08-1.07-1.66-.41-.73-.62-1.5-.2-2.3.34-.65.17-1.27-.01-1.92-.33-1.2-.63-2.41-.94-3.62-.81-3.14-1.19-6.33-1.18-9.57,0-1.25-.02-2.49,0-3.74.12-5.21.64-10.39,1.99-15.43,1.41-5.26,3.51-10.25,6.59-14.79,1.94-2.85,3.79-5.76,6.06-8.36,1.44-1.65,2.78-3.41,4.52-4.78.11-.09.22-.19.33-.29,7.41-6.88,14.56-14.04,21.67-21.22.55-.55,1.17-1.09,1.21-1.94-.48-.33-.79-.08-1.07.13-1.93,1.45-3.88,2.89-5.76,4.4-2.51,2.01-5.02,4.03-7.29,6.34-1.13,1.14-2.49,2.06-3.58,3.23-2.1,2.24-4.05,4.63-6.14,6.88-2.65,2.85-4.95,5.98-7.24,9.11-2.95,4.02-5.65,8.22-8.06,12.58-2.03,3.67-3.35,7.64-4.54,11.66-.18.59-.16,1.31-.83,1.65-.64-.38-.46-.93-.39-1.4.71-4.95,1.9-9.78,3.74-14.44.81-2.04,1.54-4.14,2.61-6.05,1.56-2.81,3.38-5.48,5.11-8.2.39-.62.86-1.19,1.28-1.79,3.27-4.71,7.01-9.04,11.24-12.89,4.06-3.7,8.42-7.06,12.96-10.15,1.51-1.03,3.01-2.08,4.5-3.15,3.01-2.15,6.34-3.67,9.81-4.88,1.04-.37,2.02-.81,2.93-1.46.63-.45,1.41-.76,2.17-.97,1.41-.4,2.86-.63,4.27-1.04,1.44-.42,2.88-.49,4.35-.29,1.31.17,2.63.28,3.91.56,2.51.54,4.91,1.43,7.11,2.8.93.58,1.79,1.24,3,1.2.48-.02.97.31,1.46.45,1.39.39,2,.11,2.63-1.23.37-.79.66-1.63,1.02-2.43.14-.33.35-.63.52-.92,1.02-.29,1.8.17,2.57.56.93.47,1.82.53,2.71-.03,1.14-.73,2.27-.84,3.54-.29.91.39,1.88.14,2.8-.17,2.96-.99,2.26-1.03,5.97-.11,1.41.35,2.79.74,4.31.67,1.2-.05,2.43.46,3.64.77,1.99.51,3.96,1.09,5.95,1.59,1.3.33,2.48.86,3.54,1.7.92.73,1.88,1.4,2.82,2.1,3.12,2.34,6.5,4.23,10.11,5.73,1.15.48,2.26,1.05,3.35,1.65,3.4,1.88,6.81,3.74,10.15,5.71,4.29,2.53,8.59,5.1,12.01,8.8,2.18,2.36,4.44,4.67,6.11,7.46.68,1.13,1.43,2.22,2.19,3.3,1.06,1.51,1.9,3.09,2.39,4.9.4,1.47,1.05,2.89,1.72,4.28,1.27,2.63,1.71,5.42,1.86,8.3.06,1.09.17,2.19.29,3.28.2,1.9.21,3.79-.04,5.7-.47,3.64-1.22,7.22-2.13,10.77-.62,2.41-.51,4.8.64,7.07.23.46.47.93.8,1.31,1.55,1.76,3,3.63,4.73,5.19,2.61,2.36,5.4,4.54,8.98,5.3,1.5.32,3.03.52,4.54.78.42.07.83.18,1.26.27-.08.24-.11.46-.17.47-1.59.21-3.15.54-4.78.27-1.21-.2-2.47-.19-3.61.01-.35.49-.09.78.1,1.08,1.74,2.97,3.51,5.92,5.22,8.91,1.12,1.97,2.14,4,3.24,5.99.57,1.03.74,2.03.18,3.13-.33.65-.48,1.38-.75,2.06-.69,1.73-1.03,3.52-.88,5.38.16,1.92-.39,3.56-1.53,5.12-1.25,1.71-2.32,3.56-3.45,5.36-.6.95-1.35,1.73-2.31,2.31-3.2,1.92-6.22,4.14-9.61,5.76-2.18,1.04-4.2,2.39-6.48,3.23-2.94,1.08-3.9,3.58-4.29,6.36-.16,1.15-.02,2.34-.05,3.51-.01.57-.1,1.14-.15,1.65-.58.28-.84,0-.92-.37-.14-.64-.19-1.3-.28-1.95-.16-1.22-.43-1.55-1.58-1.77-.49-.1-1-.08-1.41-.11-1.04.77-.72,2.42-2.24,2.82-.18-.3-.47-.57-.51-.89-.17-1.23-.28-2.46-.39-3.7-.09-1.08.17-2.19-.27-3.27-1.47-.25-2.04.98-2.9,1.65-2.47.3-2.48.3-2.54,2.82-.03,1.17-.04,2.33-.62,3.4-.72-.24-.62-.81-.66-1.29-.07-.87-.06-1.76-.15-2.63-.03-.24-.28-.62-.48-.65-.31-.05-.75.05-.97.26-.82.79-.9,1.63-.3,2.55.48.73,1.02,1.43,1.49,2.17.09.14.06.46-.04.61-.1.15-.38.25-.57.24-.36-.03-.72-.12-1.06-.24-.97-.35-1.91-.77-2.89-1.07-1.46-.44-2.21-1.31-2.13-2.89.04-.79.12-1.61-.32-2.43-.49-.08-1.01-.09-1.47-.26-.69-.25-1.24-.13-1.88.2-.82.43-1.72.72-2.63,1.08-.91,1.81.58,2.95,1.39,4.26-.27.47-.48.84-.69,1.21.02.15,0,.3.06.43.79,1.85,1.91,3.44,3.41,4.8.98.88,1.86,1.87,2.77,2.82.09.09.08.27.17.56-.29,0-.58.1-.78,0-.65-.33-1.26-.74-1.89-1.11-.49-.29-.99-.57-1.56-.9-.32.78.28,1.01.55,1.38.4.55,1.36,1.03.66,1.81-.52.59-1.21-.04-1.8-.27-.34-.13-.66-.32-1.01-.44-2.01-.74-3.93-1.62-5.33-3.25-1.02.18-1.39.74-1.37,1.56.01.57.11,1.13.19,1.86-1.65-.24-2.68.7-3.75,1.57-.45.37-.89.77-1.36,1.11-1.77,1.29-3.46,2.77-5.37,3.8-1.85.99-3.94,1.56-5.95,2.25-2.11.73-2.43.92-2.05,3.51.68,4.67,1.97,9.15,3.35,13.64,1.16,3.78,2.06,7.64,3.13,11.45,1.33,4.74,2.23,9.58,2.73,14.46.3,2.97.06,6,0,9-.02,1.31-.32,2.63-.27,3.94.19,4.8-.15,9.52-1.67,14.1-.39,1.16-.37,2.29.2,3.41.73,1.44,1.3,2.96,2.11,4.34,2.29,3.92,4.67,7.79,7.01,11.69.3.5.56,1.03.84,1.55.36.67.43,1.36.3,2.12-.12.71-.08,1.44-.08,2.17,0,.66.09,1.32.04,1.97-.14,1.71-1.24,2.56-2.98,2.45-1.75-.11-3.51-.16-5.26-.22-.44-.01-.88.03-1.31.12-.48.1-.74.45-.72.95.01.29.09.58.14.87.9,5.2,1.8,10.39,2.69,15.59,1.1,6.43,2.21,12.85,3.26,19.29.44,2.67.78,5.36,1.12,8.05.82,6.41,2.25,12.7,4.12,18.88.29.97.78,1.9,1.3,2.78,1.78,3.03,3.65,6.01,5.41,9.06,3.08,5.35,5.66,10.92,7.4,16.87,1.03,3.52,2.09,7.03,2.71,10.65.61,3.54,1.11,7.09,1.56,10.65.37,2.97.58,5.97.88,8.95.22,2.11.49,4.21.72,6.32.08.73.08,1.46.14,2.19.13,1.7.54,3.29,1.46,4.78.76,1.23,1.73,2.39,2.03,3.87h-183.87Zm127.05-78c-.08.01-.17.03-.25.04.01.25,0,.51.06.75.01.06.21.09.33.11.02,0,.1-.12.09-.17-.06-.25-.14-.49-.22-.74Z"/>
        <path class="cls-4" d="m282.62,233.02c.08.24.16.49.22.74.01.05-.07.17-.09.17-.12-.02-.32-.05-.33-.11-.05-.24-.04-.5-.06-.75.08-.01.17-.03.25-.04Z"/>
      </g>
    </g>
    <rect class="cls-1" x="4" y="50" width="862" height="218" rx="51.86" ry="51.86"/>
    <text class="cls-3" transform="translate(59.59 204.04)"><tspan x="0" y="0">Suiren_Meru</tspan></text>
  </g>
</svg>